name analog
datacolumns 19
datarows 72
range 0.531 0.5665
endheader
time	ground_force_vx	ground_force_vy	ground_force_vz	ground_force_px	ground_force_py	ground_force_pz	l_ground_force_vx	l_ground_force_vy	l_ground_force_vz	l_ground_force_px	l_ground_force_py	l_ground_force_pz	ground_torque_x	ground_torque_y	ground_torque_z	l_ground_torque_x	l_ground_torque_y	l_ground_torque_z
0.531	-0.0	-0.0	-0.0	10.845135688781738	1.1267846822738647	-806.4231567382812	-0.0	-0.0	-0.0	-0.0	-0.0	-0.0	-0.0	-0.0	-0.0	-0.0	-0.0	-0.0
0.5315	-0.0	-0.0	-0.0	12.37166690826416	1.3689502477645874	-805.0103149414062	-0.0	-0.0	-0.0	-0.0	-0.0	-0.0	-0.0	-0.0	-0.0	-0.0	-0.0	-0.0
0.532	-0.0	-0.0	-0.0	12.343234062194824	1.0870529413223269	-803.8666381835938	-0.0	-0.0	-0.0	-0.0	-0.0	-0.0	-0.0	-0.0	-0.0	-0.0	-0.0	-0.0
0.5325	-0.0	-0.0	-0.0	12.161081314086914	1.0372872352600098	-800.4183959960938	-0.0	-0.0	-0.0	-0.0	-0.0	-0.0	-0.0	-0.0	-0.0	-0.0	-0.0	-0.0
0.533	-0.0	-0.0	-0.0	11.479745864868164	1.17515230178833	-797.1113891601562	-0.0	-0.0	-0.0	-0.0	-0.0	-0.0	-0.0	-0.0	-0.0	-0.0	-0.0	-0.0
0.5335	-0.0	-0.0	-0.0	10.048237800598145	1.6043472290039062	-796.3086547851562	-0.0	-0.0	-0.0	-0.0	-0.0	-0.0	-0.0	-0.0	-0.0	-0.0	-0.0	-0.0
0.534	-0.0	-0.0	-0.0	8.568613052368164	1.0695648193359375	-794.1897583007812	-0.0	-0.0	-0.0	-0.0	-0.0	-0.0	-0.0	-0.0	-0.0	-0.0	-0.0	-0.0
0.5345	-0.0	-0.0	-0.0	7.0430216789245605	1.252430081367493	-793.2968139648438	-0.0	-0.0	-0.0	-0.0	-0.0	-0.0	-0.0	-0.0	-0.0	-0.0	-0.0	-0.0
0.535	-0.0	-0.0	-0.0	6.089691162109375	1.008555889129639	-791.3270263671875	-0.0	-0.0	-0.0	-0.0	-0.0	-0.0	-0.0	-0.0	-0.0	-0.0	-0.0	-0.0
0.5355	-0.0	-0.0	-0.0	5.451632976531982	0.6288043856620789	-790.508544921875	-0.0	-0.0	-0.0	-0.0	-0.0	-0.0	-0.0	-0.0	-0.0	-0.0	-0.0	-0.0
0.536	-0.0	-0.0	-0.0	4.649219989776611	0.1502613425254821	-789.0742797851562	-0.0	-0.0	-0.0	-0.0	-0.0	-0.0	-0.0	-0.0	-0.0	-0.0	-0.0	-0.0
0.5365	-0.0	-0.0	-0.0	4.254141330718994	-0.3285834789276123	-788.6507568359375	-0.0	-0.0	-0.0	-0.0	-0.0	-0.0	-0.0	-0.0	-0.0	-0.0	-0.0	-0.0
0.537	-0.0	-0.0	-0.0	4.616471767425537	-0.8967456221580505	-787.7018432617188	-0.0	-0.0	-0.0	-0.0	-0.0	-0.0	-0.0	-0.0	-0.0	-0.0	-0.0	-0.0
0.5375	-0.0	-0.0	-0.0	3.953103542327881	-1.615711331367493	-785.5598754882812	-0.0	-0.0	-0.0	-0.0	-0.0	-0.0	-0.0	-0.0	-0.0	-0.0	-0.0	-0.0
0.538	-0.0	-0.0	-0.0	3.4837605953216557	-2.651944637298584	-785.47216796875	-0.0	-0.0	-0.0	-0.0	-0.0	-0.0	-0.0	-0.0	-0.0	-0.0	-0.0	-0.0
0.5385	-0.0	-0.0	-0.0	4.208548545837402	-3.5098156929016118	-785.1048583984375	-0.0	-0.0	-0.0	-0.0	-0.0	-0.0	-0.0	-0.0	-0.0	-0.0	-0.0	-0.0
0.539	-0.0	-0.0	-0.0	4.205368518829346	-3.838838815689087	-783.2188720703125	-0.0	-0.0	-0.0	-0.0	-0.0	-0.0	-0.0	-0.0	-0.0	-0.0	-0.0	-0.0
0.5395	-0.0	-0.0	-0.0	4.804643630981445	-4.668728351593018	-784.5386352539062	-0.0	-0.0	-0.0	-0.0	-0.0	-0.0	-0.0	-0.0	-0.0	-0.0	-0.0	-0.0
0.54	-0.0	-0.0	-0.0	4.494664192199707	-4.806445121765137	-781.56103515625	-0.0	-0.0	-0.0	-0.0	-0.0	-0.0	-0.0	-0.0	-0.0	-0.0	-0.0	-0.0
0.5405	-0.0	-0.0	-0.0	4.1861066818237305	-5.450516700744629	-783.6525268554688	-0.0	-0.0	-0.0	-0.0	-0.0	-0.0	-0.0	-0.0	-0.0	-0.0	-0.0	-0.0
0.541	-0.0	-0.0	-0.0	3.842963695526123	-5.999145030975342	-781.4785766601562	-0.0	-0.0	-0.0	-0.0	-0.0	-0.0	-0.0	-0.0	-0.0	-0.0	-0.0	-0.0
0.5415	-0.0	-0.0	-0.0	2.1827099323272705	-6.417388916015625	-784.0594482421875	-0.0	-0.0	-0.0	-0.0	-0.0	-0.0	-0.0	-0.0	-0.0	-0.0	-0.0	-0.0
0.542	-0.0	-0.0	-0.0	0.9466874599456788	-6.890307426452637	-783.2450561523438	-0.0	-0.0	-0.0	-0.0	-0.0	-0.0	-0.0	-0.0	-0.0	-0.0	-0.0	-0.0
0.5425	-0.0	-0.0	-0.0	-0.7333648204803467	-6.952171325683594	-783.5985107421875	-0.0	-0.0	-0.0	-0.0	-0.0	-0.0	-0.0	-0.0	-0.0	-0.0	-0.0	-0.0
0.543	-0.0	-0.0	-0.0	-2.420450210571289	-7.657519817352295	-784.1669921875	-0.0	-0.0	-0.0	-0.0	-0.0	-0.0	-0.0	-0.0	-0.0	-0.0	-0.0	-0.0
0.5435	-0.0	-0.0	-0.0	-3.801096677780152	-8.04101848602295	-784.7968139648438	-0.0	-0.0	-0.0	-0.0	-0.0	-0.0	-0.0	-0.0	-0.0	-0.0	-0.0	-0.0
0.544	-0.0	-0.0	-0.0	-4.328130722045898	-7.665214538574219	-787.59130859375	-0.0	-0.0	-0.0	-0.0	-0.0	-0.0	-0.0	-0.0	-0.0	-0.0	-0.0	-0.0
0.5445	-0.0	-0.0	-0.0	-4.914831161499023	-6.668288230895996	-788.6507568359375	-0.0	-0.0	-0.0	-0.0	-0.0	-0.0	-0.0	-0.0	-0.0	-0.0	-0.0	-0.0
0.545	-0.0	-0.0	-0.0	-4.736536502838135	-6.096158981323242	-789.5704956054688	-0.0	-0.0	-0.0	-0.0	-0.0	-0.0	-0.0	-0.0	-0.0	-0.0	-0.0	-0.0
0.5455	-0.0	-0.0	-0.0	-4.60346269607544	-5.026754379272461	-788.369873046875	-0.0	-0.0	-0.0	-0.0	-0.0	-0.0	-0.0	-0.0	-0.0	-0.0	-0.0	-0.0
0.546	-0.0	-0.0	-0.0	-4.986593246459961	-4.206720352172852	-789.2162475585938	-0.0	-0.0	-0.0	-0.0	-0.0	-0.0	-0.0	-0.0	-0.0	-0.0	-0.0	-0.0
0.5465	-0.0	-0.0	-0.0	-4.308838367462158	-3.33353590965271	-786.779052734375	-0.0	-0.0	-0.0	-0.0	-0.0	-0.0	-0.0	-0.0	-0.0	-0.0	-0.0	-0.0
0.547	-0.0	-0.0	-0.0	-4.416333198547363	-1.746790885925293	-787.980712890625	-0.0	-0.0	-0.0	-0.0	-0.0	-0.0	-0.0	-0.0	-0.0	-0.0	-0.0	-0.0
0.5475	-0.0	-0.0	-0.0	-3.684270143508911	-1.167979717254639	-787.238037109375	-0.0	-0.0	-0.0	-0.0	-0.0	-0.0	-0.0	-0.0	-0.0	-0.0	-0.0	-0.0
0.548	-0.0	-0.0	-0.0	-3.006598234176636	0.4266021847724914	-790.2360229492188	-0.0	-0.0	-0.0	-0.0	-0.0	-0.0	-0.0	-0.0	-0.0	-0.0	-0.0	-0.0
0.5485	-0.0	-0.0	-0.0	-2.345970869064331	1.3007731437683103	-788.4794921875	-0.0	-0.0	-0.0	-0.0	-0.0	-0.0	-0.0	-0.0	-0.0	-0.0	-0.0	-0.0
0.549	-0.0	-0.0	-0.0	-1.899876832962036	2.040165901184082	-789.6055908203125	-0.0	-0.0	-0.0	-0.0	-0.0	-0.0	-0.0	-0.0	-0.0	-0.0	-0.0	-0.0
0.5495	-0.0	-0.0	-0.0	-1.6158719062805176	2.6576335430145264	-791.3073120117188	-0.0	-0.0	-0.0	-0.0	-0.0	-0.0	-0.0	-0.0	-0.0	-0.0	-0.0	-0.0
0.55	-0.0	-0.0	-0.0	-0.8921051025390625	3.2146058082580566	-792.0379638671875	-0.0	-0.0	-0.0	-0.0	-0.0	-0.0	-0.0	-0.0	-0.0	-0.0	-0.0	-0.0
0.5505	-0.0	-0.0	-0.0	-0.0629512667655944	4.299106121063232	-792.1412963867188	-0.0	-0.0	-0.0	-0.0	-0.0	-0.0	-0.0	-0.0	-0.0	-0.0	-0.0	-0.0
0.551	-0.0	-0.0	-0.0	0.3412837088108063	4.08937406539917	-793.7410888671875	-0.0	-0.0	-0.0	-0.0	-0.0	-0.0	-0.0	-0.0	-0.0	-0.0	-0.0	-0.0
0.5515	-0.0	-0.0	-0.0	1.422731876373291	4.19987678527832	-793.6378784179688	-0.0	-0.0	-0.0	-0.0	-0.0	-0.0	-0.0	-0.0	-0.0	-0.0	-0.0	-0.0
0.552	-0.0	-0.0	-0.0	1.416370153427124	4.619721412658691	-791.8890380859375	-0.0	-0.0	-0.0	-0.0	-0.0	-0.0	-0.0	-0.0	-0.0	-0.0	-0.0	-0.0
0.5525	-0.0	-0.0	-0.0	2.3194732666015625	4.519664764404297	-792.74169921875	-0.0	-0.0	-0.0	-0.0	-0.0	-0.0	-0.0	-0.0	-0.0	-0.0	-0.0	-0.0
0.553	-0.0	-0.0	-0.0	3.1743032932281494	5.039841175079346	-792.7413940429688	-0.0	-0.0	-0.0	-0.0	-0.0	-0.0	-0.0	-0.0	-0.0	-0.0	-0.0	-0.0
0.5535	-0.0	-0.0	-0.0	3.389999389648437	4.726700305938721	-793.3446655273438	-0.0	-0.0	-0.0	-0.0	-0.0	-0.0	-0.0	-0.0	-0.0	-0.0	-0.0	-0.0
0.554	-0.0	-0.0	-0.0	4.30793046951294	5.361904621124268	-794.6641845703125	-0.0	-0.0	-0.0	-0.0	-0.0	-0.0	-0.0	-0.0	-0.0	-0.0	-0.0	-0.0
0.5545	-0.0	-0.0	-0.0	4.577370643615723	6.086601257324219	-792.6924438476562	-0.0	-0.0	-0.0	-0.0	-0.0	-0.0	-0.0	-0.0	-0.0	-0.0	-0.0	-0.0
0.555	-0.0	-0.0	-0.0	4.499837875366211	5.959650993347168	-793.1942138671875	-0.0	-0.0	-0.0	-0.0	-0.0	-0.0	-0.0	-0.0	-0.0	-0.0	-0.0	-0.0
0.5555	-0.0	-0.0	-0.0	4.256461143493652	6.748290061950684	-794.350341796875	-0.0	-0.0	-0.0	-0.0	-0.0	-0.0	-0.0	-0.0	-0.0	-0.0	-0.0	-0.0
0.556	-0.0	-0.0	-0.0	4.040036201477051	7.360294342041016	-792.7877197265625	-0.0	-0.0	-0.0	-0.0	-0.0	-0.0	-0.0	-0.0	-0.0	-0.0	-0.0	-0.0
0.5565	-0.0	-0.0	-0.0	3.045802593231201	8.480253219604492	-792.7870483398438	-0.0	-0.0	-0.0	-0.0	-0.0	-0.0	-0.0	-0.0	-0.0	-0.0	-0.0	-0.0
0.557	-0.0	-0.0	-0.0	1.0322765111923218	7.537810802459717	-792.2329711914062	-0.0	-0.0	-0.0	-0.0	-0.0	-0.0	-0.0	-0.0	-0.0	-0.0	-0.0	-0.0
0.5575	-0.0	-0.0	-0.0	0.5996929407119751	7.474574565887451	-793.6958618164062	-0.0	-0.0	-0.0	-0.0	-0.0	-0.0	-0.0	-0.0	-0.0	-0.0	-0.0	-0.0
0.558	-0.0	-0.0	-0.0	-0.356842041015625	6.699008464813232	-792.93701171875	-0.0	-0.0	-0.0	-0.0	-0.0	-0.0	-0.0	-0.0	-0.0	-0.0	-0.0	-0.0
0.5585	-0.0	-0.0	-0.0	-1.196874499320984	5.9093852043151855	-794.3547973632812	-0.0	-0.0	-0.0	-0.0	-0.0	-0.0	-0.0	-0.0	-0.0	-0.0	-0.0	-0.0
0.559	-0.0	-0.0	-0.0	-1.0434067249298096	4.902172088623047	-795.6607055664062	-0.0	-0.0	-0.0	-0.0	-0.0	-0.0	-0.0	-0.0	-0.0	-0.0	-0.0	-0.0
0.5595	-0.0	-0.0	-0.0	-0.4964032471179962	3.501238346099853	-796.7197875976562	-0.0	-0.0	-0.0	-0.0	-0.0	-0.0	-0.0	-0.0	-0.0	-0.0	-0.0	-0.0
0.56	-0.0	-0.0	-0.0	-0.1282307505607605	2.2533326148986816	-797.1823120117188	-0.0	-0.0	-0.0	-0.0	-0.0	-0.0	-0.0	-0.0	-0.0	-0.0	-0.0	-0.0
0.5605	-0.0	-0.0	-0.0	0.1502014845609665	1.0836619138717651	-795.1630249023438	-0.0	-0.0	-0.0	-0.0	-0.0	-0.0	-0.0	-0.0	-0.0	-0.0	-0.0	-0.0
0.561	-0.0	-0.0	-0.0	1.0063074827194214	-0.0249694306403398	-796.46337890625	-0.0	-0.0	-0.0	-0.0	-0.0	-0.0	-0.0	-0.0	-0.0	-0.0	-0.0	-0.0
0.5615	-0.0	-0.0	-0.0	1.8734207153320312	-0.7668576240539551	-794.7535400390625	-0.0	-0.0	-0.0	-0.0	-0.0	-0.0	-0.0	-0.0	-0.0	-0.0	-0.0	-0.0
0.562	-0.0	-0.0	-0.0	1.823681354522705	-1.4055687189102173	-794.851806640625	-0.0	-0.0	-0.0	-0.0	-0.0	-0.0	-0.0	-0.0	-0.0	-0.0	-0.0	-0.0
0.5625	-0.0	-0.0	-0.0	1.184531331062317	-2.396561622619629	-794.7530517578125	-0.0	-0.0	-0.0	-0.0	-0.0	-0.0	-0.0	-0.0	-0.0	-0.0	-0.0	-0.0
0.5630000000000001	-0.0	-0.0	-0.0	0.7083587050437927	-2.327083110809326	-794.2806396484375	-0.0	-0.0	-0.0	-0.0	-0.0	-0.0	-0.0	-0.0	-0.0	-0.0	-0.0	-0.0
0.5635	-0.0	-0.0	-0.0	0.8522675037384033	-2.3611080646514893	-793.2798461914062	-0.0	-0.0	-0.0	-0.0	-0.0	-0.0	-0.0	-0.0	-0.0	-0.0	-0.0	-0.0
0.5640000000000001	-0.0	-0.0	-0.0	0.4552669525146484	-3.783438920974731	-792.986328125	-0.0	-0.0	-0.0	-0.0	-0.0	-0.0	-0.0	-0.0	-0.0	-0.0	-0.0	-0.0
0.5645	-0.0	-0.0	-0.0	0.633442223072052	-4.06651496887207	-794.2662353515625	-0.0	-0.0	-0.0	-0.0	-0.0	-0.0	-0.0	-0.0	-0.0	-0.0	-0.0	-0.0
0.5650000000000001	-0.0	-0.0	-0.0	1.3626606464385986	-4.27825927734375	-797.0574340820312	-0.0	-0.0	-0.0	-0.0	-0.0	-0.0	-0.0	-0.0	-0.0	-0.0	-0.0	-0.0
0.5655	-0.0	-0.0	-0.0	2.6763153076171875	-4.383317470550537	-796.0380249023438	-0.0	-0.0	-0.0	-0.0	-0.0	-0.0	-0.0	-0.0	-0.0	-0.0	-0.0	-0.0
0.5660000000000001	-0.0	-0.0	-0.0	4.355188846588135	-4.740022659301758	-798.25048828125	-0.0	-0.0	-0.0	-0.0	-0.0	-0.0	-0.0	-0.0	-0.0	-0.0	-0.0	-0.0
0.5665	-0.0	-0.0	-0.0	5.425506114959717	-5.023942947387695	-797.83349609375	-0.0	-0.0	-0.0	-0.0	-0.0	-0.0	-0.0	-0.0	-0.0	-0.0	-0.0	-0.0
